<svg width="32" height="32" viewBox="0 0 32 32" fill="none" xmlns="http://www.w3.org/2000/svg">
<path d="M0.657715 32H11.507C16.6516 32 20.8221 27.8295 20.8221 22.6849H9.97278C4.82821 22.6849 0.657715 26.8554 0.657715 32Z" fill="#F22BB2"/>
<path d="M1.14307 9.31507V23.0137C6.28764 23.0137 10.4581 18.8432 10.4581 13.6986V0C5.31356 0 1.14307 4.1705 1.14307 9.31507Z" fill="#8C30F5"/>
<path d="M31.3426 0H20.4933C15.3487 0 11.1782 4.1705 11.1782 9.31507H22.0275C27.1721 9.31507 31.3426 5.14457 31.3426 0Z" fill="#FE9A22"/>
<path d="M31.3424 22.137V8.43835C26.1978 8.43835 22.0273 12.6089 22.0273 17.7534V31.4521C27.1719 31.4521 31.3424 27.2816 31.3424 22.137Z" fill="#2EC5CE"/>
</svg>
